<svg xmlns="http://www.w3.org/2000/svg" width="34.148" height="24.306" viewBox="0 0 34.148 24.306">
  <g id="noun_Ship_2812508_1_" data-name="noun_Ship_2812508 (1)" transform="translate(-12 -22.376)">
    <path id="Path_1556" data-name="Path 1556" d="M45.674,40.36a3.117,3.117,0,0,0-2.415,1.2,2.1,2.1,0,0,1-3.474,0,3.013,3.013,0,0,0-2.8-1.179l.845-3.4a4.215,4.215,0,0,0-2.05-4.7l-.531-.293V29.4a1.721,1.721,0,0,0-1.719-1.719h-.156V25.243a.474.474,0,0,0-.474-.474H29.548V22.85a.474.474,0,0,0-.949,0v1.918H25.249a.474.474,0,0,0-.474.474v2.439h-.156A1.721,1.721,0,0,0,22.9,29.4v2.591l-.531.293a4.215,4.215,0,0,0-2.05,4.7l.846,3.4a3.008,3.008,0,0,0-2.806,1.178,2.1,2.1,0,0,1-3.47,0,3.115,3.115,0,0,0-2.414-1.2.474.474,0,1,0,0,.949,2.216,2.216,0,0,1,1.735.919,3.021,3.021,0,0,0,4.827,0,2.216,2.216,0,0,1,1.735-.919,1.814,1.814,0,0,1,.84.187h0a3.543,3.543,0,0,1,.9.741c.116.117.231.234.352.347a2.907,2.907,0,0,0,4.1,0c.123-.115.242-.235.359-.356a2.226,2.226,0,0,1,1.723-.919l.009,0,.01,0a2.224,2.224,0,0,1,1.734.919c.118.12.236.241.359.356a2.908,2.908,0,0,0,4.106,0h0c.12-.112.236-.229.351-.346a3.524,3.524,0,0,1,.911-.745,1.821,1.821,0,0,1,.834-.183,2.221,2.221,0,0,1,1.737.919,3.024,3.024,0,0,0,4.83,0,2.221,2.221,0,0,1,1.737-.919.474.474,0,1,0,0-.949ZM25.723,25.717h6.7v1.965h-6.7ZM28.6,35V40.4a3.3,3.3,0,0,0-1.946,1.169c-.107.11-.215.22-.327.325a1.961,1.961,0,0,1-2.812,0c-.11-.1-.216-.21-.322-.318a4.967,4.967,0,0,0-.956-.807l-1-4.009a3.265,3.265,0,0,1,1.587-3.641l.776-.428,5-2.761Zm.681-6.3a.442.442,0,0,0-.049-.02.725.725,0,0,0-.134-.027c-.008,0-.015,0-.024,0s-.015,0-.023,0a.751.751,0,0,0-.134.027.443.443,0,0,0-.05.02c-.007,0-.015,0-.023.007l-5,2.761V29.4a.771.771,0,0,1,.771-.771H33.53a.771.771,0,0,1,.771.771v2.067l-5-2.761C29.3,28.7,29.288,28.7,29.281,28.7Zm6.632,12.059a4.916,4.916,0,0,0-.965.813c-.105.107-.211.214-.321.317h0a1.962,1.962,0,0,1-2.813,0c-.113-.1-.22-.214-.327-.324A3.305,3.305,0,0,0,29.548,40.4V29.925l5,2.761.776.428a3.265,3.265,0,0,1,1.587,3.641Z" fill="#707070"/>
    <path id="Path_1557" data-name="Path 1557" d="M45.674,67.148a3.119,3.119,0,0,0-2.415,1.2,2.1,2.1,0,0,1-3.474,0,3.023,3.023,0,0,0-4.829,0,2.1,2.1,0,0,1-3.472,0,3.022,3.022,0,0,0-4.829,0,2.1,2.1,0,0,1-3.47,0,3.02,3.02,0,0,0-4.827,0,2.1,2.1,0,0,1-3.47,0,3.115,3.115,0,0,0-2.414-1.2.474.474,0,1,0,0,.949,2.217,2.217,0,0,1,1.735.918,3.021,3.021,0,0,0,4.827,0,2.1,2.1,0,0,1,3.47,0,3.021,3.021,0,0,0,4.827,0,2.1,2.1,0,0,1,3.472,0,3.022,3.022,0,0,0,4.828,0,2.1,2.1,0,0,1,3.473,0,3.025,3.025,0,0,0,4.83,0,2.219,2.219,0,0,1,1.737-.919.474.474,0,1,0,0-.949Z" transform="translate(0 -23.538)" fill="#707070"/>
  </g>
</svg>
