<svg xmlns="http://www.w3.org/2000/svg" width="33.351" height="26.831" viewBox="0 0 33.351 26.831">
  <g id="Group_2859" data-name="Group 2859" transform="translate(-2737.816 -12247.755)">
    <g id="Group_2853" data-name="Group 2853" transform="translate(2747.388 12247.755)">
      <path id="Path_1573" data-name="Path 1573" d="M198.237,96.087a1.99,1.99,0,1,0-1.99,1.99A1.993,1.993,0,0,0,198.237,96.087Zm-3.24,0a1.25,1.25,0,1,1,1.25,1.251A1.252,1.252,0,0,1,195,96.087Z" transform="translate(-192.628 -92.509)" fill="#707070"/>
      <path id="Path_1574" data-name="Path 1574" d="M176.124,81.959c.342-.386,3.343-3.83,3.343-5.71a3.619,3.619,0,0,0-7.239,0c0,1.88,3,5.324,3.342,5.71l.277.313Zm-3.156-5.71a2.88,2.88,0,0,1,5.76,0c0,1.23-1.877,3.709-2.88,4.9C174.844,79.959,172.968,77.481,172.968,76.249Z" transform="translate(-172.228 -72.63)" fill="#707070"/>
    </g>
    <path id="Path_1575" data-name="Path 1575" d="M42.816,165.9v7.042h2.906l3.906,2.939c-.012.1-.021.207-.028.313a4.993,4.993,0,0,0-1.806,3.767v1.552h1.342a4.035,4.035,0,0,0,1.693,2.926H45.648v.74H59.406v-.74H55.477a4.066,4.066,0,0,0,1.157-1.258h2.485l1.185-.612a2.291,2.291,0,0,0,1.1.279h5.529l.111-.135c.006-.008.131-.156.361-.393a4.061,4.061,0,0,0,1.641,2.119H62.809v.74H76.167v-.74H73.434a4.028,4.028,0,0,0,.994-5.844,9.361,9.361,0,0,1,1.191-.077.436.436,0,0,0,.437-.276c.123-.332-.17-.585-.613-.967-.1-.086-.194-.167-.249-.222a5.951,5.951,0,0,0-3.227-1.672l-3.031-7.428h.914v-.347h.076a1.181,1.181,0,0,0,1.18-1.18V166.4a1.181,1.181,0,0,0-1.18-1.18H69.85v-.347H67.292a1.543,1.543,0,0,0-1.541,1.541v.716c0,.028,0,.055,0,.082H65.3l-1.573-1.573H61.883v.74h1.541L65,167.955h1.484l-.821,2.488,1.109,6.567a6.014,6.014,0,0,0-1.3,1.878h-4.2a7.385,7.385,0,0,1-.482-1.273,7.783,7.783,0,0,1,.226-4.7.89.89,0,0,0,.673-.862,2.2,2.2,0,0,0-2.2-2.2H51.874a1.54,1.54,0,0,0-1.315,2.347h-.7v-6.3Zm.74,6.3v-5.563h5.563V172.2H43.556Zm4.978,7.758c0-2.551,2.474-4.626,5.514-4.626h1.4c2.012,0,3.649,1.365,3.649,3.042v2.4H57.171a4.035,4.035,0,0,0-8.036,0h-.6v-.812Zm1.346.812a3.294,3.294,0,0,1,6.547,0Zm4.365.74a1.152,1.152,0,0,1-2.182,0Zm-1.091,2.926a3.3,3.3,0,0,1-3.273-2.926H51.3a1.893,1.893,0,0,0,3.712,0h1.418a3.266,3.266,0,0,1-.245.928H54.871v.74h.869A3.29,3.29,0,0,1,53.153,184.44Zm5.786-2H56.973a4,4,0,0,0,.2-.928h2.14a2.327,2.327,0,0,0,.36.55Zm15.592-1.382a3.3,3.3,0,0,1-6.521.677,14.313,14.313,0,0,1,1.381-1.1,1.892,1.892,0,1,0,2.48-1.361,10.56,10.56,0,0,1,1.709-.534A3.307,3.307,0,0,1,74.531,181.06Zm-4.124-.8.5.969.657-.339-.5-.969a1.154,1.154,0,1,1-.657.339Zm-.48-14.3a.441.441,0,0,1,.44.44v.025a.441.441,0,0,1-.44.44H69.85v-.906Zm-3.436,1.171v-.716a.8.8,0,0,1,.8-.8h1.819v1.6H66.573A.082.082,0,0,1,66.491,167.133Zm-.07,3.367.84-2.545h.877l3,7.345c-.06,0-.12,0-.18,0a5.967,5.967,0,0,0-3.529,1.159Zm4.534,5.535a5.219,5.219,0,0,1,3.716,1.541c.066.066.155.144.251.227a12,12,0,0,0-5.938,2.207,14.038,14.038,0,0,0-2.4,2.1H61.4a1.572,1.572,0,0,1-1.523-1.2h2.777l0,0h3.053l.043-.32A5.273,5.273,0,0,1,70.955,176.035ZM65.2,179.627c-.051.177-.1.357-.13.541H62.061q-.2-.264-.378-.541H65.2Zm-4.046.541H59.833v-1.789c0-2.085-1.969-3.782-4.388-3.782h-1.4a6.938,6.938,0,0,0-3.631,1,6.952,6.952,0,0,1,1.09-2.654H60.22a8.484,8.484,0,0,0-.147,4.866A8.136,8.136,0,0,0,61.152,180.168Zm-9.278-9.57h7.613a1.459,1.459,0,0,1,1.457,1.457.15.15,0,0,1-.15.15h-8.92a.8.8,0,1,1,0-1.607Zm-1.243,2.347a7.753,7.753,0,0,0-.86,2.121l-2.819-2.121h3.679Z" transform="translate(2695 12089.406)" fill="#707070"/>
  </g>
</svg>
