<svg xmlns="http://www.w3.org/2000/svg" width="40.321" height="35.022" viewBox="0 0 40.321 35.022">
  <path id="Path_1549" data-name="Path 1549" d="M43.321,36.035H35.929L27.3,29.7A.5.5,0,0,0,27,29.6H22.854a.5.5,0,0,0-.419.768l3.649,5.668H19.778L17.988,32.9a.5.5,0,0,0-.434-.254H15.561a.5.5,0,0,0-.489.588l.957,5.309a.5.5,0,0,0,.394.4L27.15,41.1l-4.726,8.09a.5.5,0,0,0,.434.748H27a.5.5,0,0,0,.314-.115l10.468-8.509,9.112.03c.638,0,2.991-.678,2.991-1.869C49.886,37.546,47,36.035,43.321,36.035ZM23.766,30.6h3.071l7.407,5.438H27.265Zm3.061,18.344H23.721l4.945-8.509H37.3ZM46.9,40.347H39.009a.509.509,0,0,0-.309-.907H28.382a.5.5,0,0,0-.429.244l-.3.5L16.932,38.034l-.768-4.392h1.1l1.79,3.135a.5.5,0,0,0,.434.249H43.321c3.27,0,5.548,1.276,5.568,2.428A3.536,3.536,0,0,1,46.9,40.347Z" transform="translate(-27.846 -0.693) rotate(-30)" fill="#707070"/>
</svg>
