<svg id="Group_9" data-name="Group 9" xmlns="http://www.w3.org/2000/svg" width="12.109" height="15.565" viewBox="0 0 12.109 15.565">
  <path id="Path_6" data-name="Path 6" d="M1495.508,83.631a4.239,4.239,0,0,1-2.089-.994c-.408,2.143-.907,4.2-2.386,5.27-.457-3.239.67-5.671,1.193-8.253-.892-1.5.107-4.524,1.989-3.779,2.315.916-2.005,5.583.9,6.166,3.028.608,4.264-5.253,2.386-7.16-2.712-2.753-7.9-.063-7.259,3.878.155.963,1.151,1.256.4,2.585-1.736-.385-2.254-1.754-2.187-3.58a5.843,5.843,0,0,1,5.27-5.37c3.27-.366,6.338,1.2,6.762,4.276.477,3.471-1.476,7.231-4.972,6.961Zm0,0" transform="translate(-1488.442 -72.341)" fill="#bc2e31"/>
</svg>
