<svg xmlns="http://www.w3.org/2000/svg" width="22.462" height="24.826" viewBox="0 0 22.462 24.826">
  <g id="Group_2652" data-name="Group 2652" transform="translate(-376.476 -687.009)">
    <path id="Path_1411" data-name="Path 1411" d="M387.974,709.077h-9.922a1.576,1.576,0,0,1-1.576-1.576V688.585a1.574,1.574,0,0,1,1.182-1.576h3.194a2,2,0,0,0-.041.406,1.961,1.961,0,0,0,1.959,1.958h5.146a1.975,1.975,0,0,0,1.92-2.364h2.4c1.265,0,1.971.705,1.971,1.576v11.843c-.131-.008-.261-.02-.394-.02a6.291,6.291,0,0,0-1.576.207v-9.271H378.446v15.763h9.084A6.266,6.266,0,0,0,387.974,709.077Z" fill="#bc2e31"/>
    <path id="Path_1412" data-name="Path 1412" d="M407.839,718.327a5.123,5.123,0,1,0,5.123,5.123A5.123,5.123,0,0,0,407.839,718.327Zm3.347,4.07-3.152,3.547a.788.788,0,0,1-1.082.092l-1.97-1.576a.788.788,0,0,1,.985-1.231l1.386,1.109,2.656-2.987a.788.788,0,1,1,1.178,1.048Z" transform="translate(-14.024 -16.737)" fill="#bc2e31"/>
    <rect id="Rectangle_48" data-name="Rectangle 48" width="7.093" height="1.182" rx="0.591" transform="translate(383.569 696.861)" fill="#bc2e31"/>
    <rect id="Rectangle_49" data-name="Rectangle 49" width="7.093" height="1.182" rx="0.591" transform="translate(383.569 693.314)" fill="#bc2e31"/>
    <rect id="Rectangle_50" data-name="Rectangle 50" width="5.123" height="1.182" rx="0.591" transform="translate(383.569 700.013)" fill="#bc2e31"/>
    <rect id="Rectangle_51" data-name="Rectangle 51" width="4.335" height="1.182" rx="0.591" transform="translate(383.569 703.56)" fill="#bc2e31"/>
    <path id="Path_1413" data-name="Path 1413" d="M386.656,699.267,385.2,700.9a.363.363,0,0,1-.5.042l-.907-.725a.363.363,0,1,1,.453-.567l.638.51,1.223-1.375a.363.363,0,0,1,.542.482Z" transform="translate(-3.841 -6.228)" fill="#bc2e31"/>
    <path id="Path_1414" data-name="Path 1414" d="M386.656,706.8l-1.451,1.632a.363.363,0,0,1-.5.042l-.907-.726a.363.363,0,1,1,.453-.566l.638.51,1.223-1.375a.363.363,0,1,1,.542.482Z" transform="translate(-3.841 -10.253)" fill="#bc2e31"/>
    <path id="Path_1415" data-name="Path 1415" d="M386.656,714l-1.451,1.633a.363.363,0,0,1-.5.042l-.907-.726a.363.363,0,1,1,.453-.567l.638.511,1.223-1.375a.363.363,0,1,1,.542.482Z" transform="translate(-3.841 -14.102)" fill="#bc2e31"/>
    <path id="Path_1416" data-name="Path 1416" d="M386.656,721.253l-1.451,1.633a.363.363,0,0,1-.5.042l-.907-.726a.363.363,0,0,1,.453-.567l.638.511,1.223-1.375a.363.363,0,0,1,.542.482Z" transform="translate(-3.841 -17.978)" fill="#bc2e31"/>
  </g>
</svg>
