<svg id="Group_2851" data-name="Group 2851" xmlns="http://www.w3.org/2000/svg" width="27.209" height="30" viewBox="0 0 27.209 30">
  <path id="Path_1555" data-name="Path 1555" d="M24.6,959.369a13.577,13.577,0,0,0-13.4,11.565c0,.007-.01.014-.011.022a.2.2,0,0,1-.011.1A13.419,13.419,0,0,0,11,972.973a13.6,13.6,0,0,0,11.512,13.418v2.627a.349.349,0,0,0,.5.316L33.478,984.1a.349.349,0,0,0,0-.632l-.174-.087a13.57,13.57,0,0,0-8.7-24.013Zm-2.028.861a8.109,8.109,0,0,0-3.216,3.455,15.58,15.58,0,0,0-1.177,2.867,15.584,15.584,0,0,0-2.867,1.177,8.263,8.263,0,0,0-3.39,3.085,12.878,12.878,0,0,1,10.65-10.584Zm4.055,0a12.907,12.907,0,0,1,10.716,10.715,8.109,8.109,0,0,0-3.456-3.216,15.584,15.584,0,0,0-2.867-1.177,15.58,15.58,0,0,0-1.177-2.867,8.109,8.109,0,0,0-3.216-3.455Zm-2.376.2v5.232a22.557,22.557,0,0,0-5.265.676,14.565,14.565,0,0,1,.992-2.322c1.146-2.119,2.653-3.423,4.273-3.586Zm.7,0c1.621.163,3.128,1.467,4.273,3.586a14.566,14.566,0,0,1,.992,2.322,22.557,22.557,0,0,0-5.265-.676v-5.232Zm-1,5.93c.1,0,.2,0,.305,0v6.268H17.988a21.573,21.573,0,0,1,.763-5.5A21.436,21.436,0,0,1,23.951,966.356Zm1,0a21.576,21.576,0,0,1,5.505.763,21.573,21.573,0,0,1,.763,5.5H24.953Zm-6.988,1a22.549,22.549,0,0,0-.676,5.265H12.275c-.047-.15-.089-.305-.131-.458.34-1.446,1.581-2.778,3.5-3.815a14.567,14.567,0,0,1,2.322-.992Zm13.278,0a14.562,14.562,0,0,1,2.322.992c2.119,1.145,3.423,2.652,3.586,4.273H31.919a22.549,22.549,0,0,0-.676-5.265Zm-19.524,5.962H11.8a13.61,13.61,0,0,0,11.021,8.96.349.349,0,0,0,.392-.349V979.12l9.331,4.665-9.331,4.665v-2.344a.349.349,0,0,0-.305-.349,12.886,12.886,0,0,1-11.185-12.437Zm.8,0H17.29a22.5,22.5,0,0,0,.676,5.254,13.433,13.433,0,0,1-3.227-1.526.346.346,0,0,0-.065-.033,12.8,12.8,0,0,1-2.158-3.7Zm5.472,0h6.268v5.537l-1.243-.621a.349.349,0,0,0-.5.315v.937a20.663,20.663,0,0,1-3.772-.687,21.661,21.661,0,0,1-.752-5.483Zm6.966,0h6.268a21.634,21.634,0,0,1-.763,5.5,21.342,21.342,0,0,1-4.687.741.349.349,0,0,0-.065.011l-.752-.37v-5.886Zm6.966,0h5.222c-.156,1.521-1.306,2.948-3.2,4.066a14.008,14.008,0,0,1-2.693,1.2,22.532,22.532,0,0,0,.676-5.265Zm5.429,1.69a12.9,12.9,0,0,1-4.709,8.044l-2.551-1.275a16.184,16.184,0,0,0,.927-2.4,15.192,15.192,0,0,0,3.281-1.4A7.761,7.761,0,0,0,37.348,975.011Zm-20.93,3.739a16.667,16.667,0,0,0,1.777.643c.072.237.149.47.229.7a12.943,12.943,0,0,1-2.006-1.341Zm2.573.861a22,22,0,0,0,3.521.589v1.3a12.868,12.868,0,0,1-3.183-.959c-.119-.3-.233-.61-.338-.927Zm11.217,0a15.079,15.079,0,0,1-.741,1.853l-2.573-1.286A21.661,21.661,0,0,0,30.208,979.611Z" transform="translate(-11 -959.369)" fill="#707070"/>
</svg>
