<svg xmlns="http://www.w3.org/2000/svg" width="22.924" height="23.715" viewBox="0 0 22.924 23.715">
  <g id="noun_custom_broker_avatar_2675405" data-name="noun_custom broker avatar_2675405" transform="translate(-2.568 -1.5)">
    <g id="Group_2858" data-name="Group 2858" transform="translate(2.568 1.5)">
      <path id="Path_1578" data-name="Path 1578" d="M21.993,17.082l-4.855-1.593c-.089-.407-.32-1.482-.35-1.6a6.4,6.4,0,0,0,1.5-2.084.745.745,0,0,0,.476-.6l.228-1.53a.767.767,0,0,0-.589-.84v-2.1L20.247,4.3a.371.371,0,0,0-.127-.555C19.939,3.657,15.672,1.5,14.081,1.5h-.1c-1.591,0-5.858,2.157-6.038,2.249a.371.371,0,0,0-.127.555L9.677,6.756l0,2.071a.76.76,0,0,0-.607.856L9.3,11.2a.754.754,0,0,0,.48.6,6.346,6.346,0,0,0,1.487,2.085s0,0,0,.008l-.346,1.6L6.081,17.078a4.886,4.886,0,0,0-3.513,4.311v3.457a.37.37,0,0,0,.371.371H25.121a.37.37,0,0,0,.371-.371,34.767,34.767,0,0,0-.022-3.567A4.84,4.84,0,0,0,21.993,17.082Zm2.757,6.095H22.87a.709.709,0,0,1,0-1.418h1.88ZM11.909,14.416a3.1,3.1,0,0,0,4.236-.01l.282,1.3-2.4,3.576-2.4-3.58ZM13.978,2.241h.1c1.061,0,3.893,1.279,5.3,1.97l-1.6,2.1H10.271l-1.6-2.1C10.085,3.52,12.917,2.241,13.978,2.241ZM17.47,7.054l-.255.828c-2.717,1.147-3.621,1.16-6.372,0l-.255-.828ZM10.41,11.391a.4.4,0,0,0-.377-.3l-.2-1.539h.223a.37.37,0,0,0,.371-.371V8.508a11.523,11.523,0,0,0,3.508.982.693.693,0,0,0,.083,0A10.4,10.4,0,0,0,17.658,8.5l-.016.665a.371.371,0,0,0,.37.39l.241.02-.241,1.535a.377.377,0,0,0-.35.261A5.788,5.788,0,0,1,15,14.247l-.092.046C13.271,15.127,11.12,13.1,10.41,11.391ZM5.189,21.759a.709.709,0,1,1,0,1.418H3.309V21.759Zm-1.88,2.715v-.557h1.88a1.45,1.45,0,1,0,0-2.9H3.372A4.113,4.113,0,0,1,6.3,17.786l4.785-1.57,2.639,3.937a.384.384,0,0,0,.616,0l2.639-3.937,4.8,1.574a4.1,4.1,0,0,1,2.911,3.227H22.87a1.45,1.45,0,0,0,0,2.9h1.88v.557Z" transform="translate(-2.568 -1.5)" fill="#707070"/>
      <rect id="Rectangle_111" data-name="Rectangle 111" width="0.741" height="0.937" transform="translate(11.092 19.711)" fill="#707070"/>
      <rect id="Rectangle_112" data-name="Rectangle 112" width="0.741" height="0.937" transform="translate(11.092 21.403)" fill="#707070"/>
      <path id="Path_1579" data-name="Path 1579" d="M42.82,50.713l.562-.768a.371.371,0,0,0-.339-.587l-.946.1-.384-.87a.371.371,0,0,0-.678,0l-.384.87-.945-.1a.371.371,0,0,0-.339.587l.562.768-.562.768a.371.371,0,0,0,.339.587l.946-.1.384.87a.371.371,0,0,0,.678,0l.384-.87.946.1a.371.371,0,0,0,.339-.587Zm-.912.486a.373.373,0,0,0-.379.219l-.154.35-.154-.35a.371.371,0,0,0-.339-.221l-.04,0-.38.041.226-.308a.371.371,0,0,0,0-.438l-.226-.308.379.041a.372.372,0,0,0,.379-.219l.154-.35.154.35a.371.371,0,0,0,.379.219l.38-.041-.226.308a.371.371,0,0,0,0,.438l.226.308Z" transform="translate(-25.686 -31.002)" fill="#707070"/>
      <path id="Path_1580" data-name="Path 1580" d="M31.377,8.123a1.248,1.248,0,1,0-1.25-1.246A1.249,1.249,0,0,0,31.377,8.123Zm0-1.754a.506.506,0,1,1-.509.508A.509.509,0,0,1,31.377,6.369Z" transform="translate(-19.915 -4.098)" fill="#707070"/>
    </g>
  </g>
</svg>
