<svg xmlns="http://www.w3.org/2000/svg" width="16.26" height="12.61" viewBox="0 0 16.26 12.61">
  <g id="Group_385" data-name="Group 385" transform="translate(-1932.154 145.082)">
    <path id="Path_800" data-name="Path 800" d="M1932.413-141.691c0,.068-.006.1-.006.132q0,3.8,0,7.6a1.206,1.206,0,0,0,1.27,1.233h13.206a1.455,1.455,0,0,0,.289-.021,1.212,1.212,0,0,0,.981-1.245q0-3.77,0-7.54c0-.046-.005-.091-.01-.161l-.209.125q-3.757,2.312-7.512,4.627a.231.231,0,0,1-.286,0q-3.754-2.317-7.513-4.627C1932.563-141.6,1932.5-141.639,1932.413-141.691Zm7.864-3.141h-4.842c-.6,0-1.194,0-1.792,0a1.206,1.206,0,0,0-1.228,1.11c-.015.138,0,.28-.011.419a.266.266,0,0,0,.157.28q3.787,2.322,7.568,4.656a.242.242,0,0,0,.3,0q3.7-2.283,7.4-4.552a.581.581,0,0,0,.331-.591,1.242,1.242,0,0,0-1.334-1.328Z" fill="none" stroke="#bc2e31" stroke-width="0.5"/>
    <path id="Path_801" data-name="Path 801" d="M1932.517-47.529c.087.052.15.089.213.127q3.757,2.312,7.513,4.627a.231.231,0,0,0,.285,0q3.754-2.317,7.512-4.627l.209-.125c0,.07.01.116.01.161q0,3.77,0,7.54a1.212,1.212,0,0,1-.981,1.245,1.454,1.454,0,0,1-.289.021h-13.206a1.206,1.206,0,0,1-1.27-1.233q0-3.8,0-7.6C1932.511-47.429,1932.514-47.461,1932.517-47.529Z" transform="translate(-0.104 -94.162)" fill="none" stroke="#bc2e31" stroke-width="0.5"/>
    <path id="Path_802" data-name="Path 802" d="M1940.277-144.832h6.553a1.242,1.242,0,0,1,1.334,1.328.581.581,0,0,1-.331.591q-3.711,2.261-7.4,4.552a.242.242,0,0,1-.3,0q-3.781-2.333-7.568-4.656a.266.266,0,0,1-.157-.28c.012-.139,0-.281.011-.419a1.206,1.206,0,0,1,1.228-1.11c.6-.006,1.194,0,1.792,0Z" fill="none" stroke="#bc2e31" stroke-width="0.5"/>
  </g>
</svg>
