<svg xmlns="http://www.w3.org/2000/svg" width="18.048" height="18.026" viewBox="0 0 18.048 18.026">
  <g id="Group_386" data-name="Group 386" transform="translate(-488.641 1534.299) rotate(-90)">
    <path id="Path_803" data-name="Path 803" d="M1529.686,506.338a8.125,8.125,0,0,1-2.819-.629,16.717,16.717,0,0,1-4.473-2.759,18.5,18.5,0,0,1-3.127-3.213,13.868,13.868,0,0,1-2.516-5.495,4.158,4.158,0,0,1,.106-2.476,4.722,4.722,0,0,1,1.691-2.072,3.551,3.551,0,0,1,1.173-.645,2.489,2.489,0,0,1,.284-.051.584.584,0,0,1,.651.309c.682,1.149,1.387,2.285,2.081,3.427a.661.661,0,0,1-.083.956c-.26.282-.557.529-.844.786s-.583.5-.87.759a.73.73,0,0,0-.208.829,5.583,5.583,0,0,0,1.027,1.818,16.648,16.648,0,0,0,2.473,2.4,20.766,20.766,0,0,0,2.421,1.8,3.849,3.849,0,0,0,.486.242.4.4,0,0,0,.424-.064,3.756,3.756,0,0,0,.474-.451c.3-.356.577-.731.873-1.09a3.533,3.533,0,0,1,.4-.4.671.671,0,0,1,.857-.061c.944.556,1.891,1.107,2.837,1.662.249.146.492.3.744.443a.34.34,0,0,1,.2.353,3.329,3.329,0,0,1-.171.825,4.43,4.43,0,0,1-3.689,2.764C1529.936,506.327,1529.786,506.33,1529.686,506.338Z" fill="none" stroke="#bc2e31" stroke-width="0.7"/>
  </g>
</svg>
