<svg id="Group_384" data-name="Group 384" xmlns="http://www.w3.org/2000/svg" width="15.96" height="16.848" viewBox="0 0 15.96 16.848">
  <path id="Path_798" data-name="Path 798" d="M184.292,227.272a.514.514,0,0,0,.409.2.527.527,0,0,0,.3-.1.47.47,0,0,0,.106-.678c-.057-.074-.115-.146-.176-.218a.525.525,0,0,0-.714-.078.47.47,0,0,0-.082.681C184.191,227.144,184.242,227.208,184.292,227.272Z" transform="translate(-171.113 -215.032)" fill="#bc2e31"/>
  <path id="Path_799" data-name="Path 799" d="M174.685,218.844a.41.41,0,0,0-.524-.24.4.4,0,0,0-.243.518,6.977,6.977,0,0,1,.423,2.031h-14.3a7.185,7.185,0,0,1,11.246-5.408.412.412,0,0,0,.569-.1.4.4,0,0,0-.1-.562,7.976,7.976,0,0,0-2.415-1.121,4.736,4.736,0,1,0-4.286,0,7.912,7.912,0,0,0-5.839,7.592.406.406,0,0,0,.408.4h15.143a.406.406,0,0,0,.408-.4A7.774,7.774,0,0,0,174.685,218.844Zm-11.414-9.05a3.92,3.92,0,1,1,3.919,3.874A3.9,3.9,0,0,1,163.271,209.794Z" transform="translate(-159.21 -205.112)" fill="#bc2e31"/>
</svg>
