<svg xmlns="http://www.w3.org/2000/svg" width="19.823" height="12.615" viewBox="0 0 19.823 12.615">
  <g id="Group_93" data-name="Group 93" transform="translate(0 0)">
    <g id="Group_23" data-name="Group 23" transform="translate(0)">
      <path id="Path_12" data-name="Path 12" d="M1343.424,76.408v2.163H1347a3.407,3.407,0,0,1-3.578,2.721,3.983,3.983,0,0,1,0-7.966,3.55,3.55,0,0,1,2.514.973l1.712-1.649A6.045,6.045,0,0,0,1343.424,71a6.307,6.307,0,0,0,0,12.615,6.113,6.113,0,0,0,5.957-7.209Z" transform="translate(-1337.117 -71.002)" fill="#bc2e31"/>
    </g>
    <g id="Group_24" data-name="Group 24" transform="translate(14.417 3.604)">
      <path id="Path_13" data-name="Path 13" d="M1381.088,82.445h-1.8v-1.8h-1.8v1.8h-1.8v1.8h1.8v1.8h1.8v-1.8h1.8Z" transform="translate(-1375.681 -80.643)" fill="#bc2e31"/>
    </g>
  </g>
</svg>
