<svg xmlns="http://www.w3.org/2000/svg" xmlns:xlink="http://www.w3.org/1999/xlink" width="47" height="47" viewBox="0 0 47 47">
  <defs>
    <linearGradient id="linear-gradient" x1="0.5" x2="0.5" y2="1" gradientUnits="objectBoundingBox">
      <stop offset="0" stop-color="#bc2e31" stop-opacity="0.902"/>
      <stop offset="1" stop-color="#3e4095" stop-opacity="0"/>
    </linearGradient>
  </defs>
  <g id="Group_2931" data-name="Group 2931" transform="translate(-764 -362)">
    <circle id="Ellipse_19" data-name="Ellipse 19" cx="23.5" cy="23.5" r="23.5" transform="translate(764 362)" fill="#fff" opacity="0.3"/>
    <g id="Group_2842" data-name="Group 2842" transform="translate(-10365 -10662)">
      <g id="Group_2839" data-name="Group 2839" transform="translate(11146 11038)">
        <g id="Group_2841" data-name="Group 2841" transform="translate(0 0)">
          <path id="Path_1543" data-name="Path 1543" d="M256.684,162.687l-8.7-5.023-2.4-1.383a2.917,2.917,0,0,0-4.375,2.527V171.62a2.911,2.911,0,0,0,4.375,2.527l1.918-1.107,2.64-1.525,6.538-3.774a2.917,2.917,0,0,0,0-5.053Zm-1.169,3.029-6.992,4.037-.932.538-3.172,1.831a.58.58,0,0,1-.87-.5V158.808a.57.57,0,0,1,.29-.5.6.6,0,0,1,.293-.08.566.566,0,0,1,.287.08l3.482,2.01,7.614,4.4a.58.58,0,0,1,0,1Z" transform="translate(-241.213 -155.886)" fill="#bc2e31"/>
        </g>
      </g>
      <path id="Path_1545" data-name="Path 1545" d="M366.944,195.967a2.888,2.888,0,0,1-1.459,2.527l-6.538,3.774-2.641,1.525.086-2.748.931-.538,6.993-4.037a.58.58,0,0,0,0-1l-7.614-4.4.082-2.651,8.7,5.023A2.887,2.887,0,0,1,366.944,195.967Z" transform="translate(10795.986 10851.36)" fill="url(#linear-gradient)"/>
    </g>
  </g>
</svg>
