<svg xmlns="http://www.w3.org/2000/svg" width="31.413" height="17.182" viewBox="0 0 31.413 17.182">
  <path id="Path_1405" data-name="Path 1405" d="M142.843,602.351c0,5.434-26.2,11.432-28.18,11.432-1.112,0-2.374-.256-2.374-1.282,0-.343.4-.838,1.089-1.434h0l-1.839-3.267a.84.84,0,0,1,.419-1.192l.316-.126a2.1,2.1,0,0,1,1.763.094l3.338,1.767c1.3-.771,2.774-1.578,4.328-2.373l-6.506-4.22a.84.84,0,0,1,.01-1.415l.532-.334a3.778,3.778,0,0,1,2.974-.454l10.822,2.854c3.374-1.339,6.425-2.254,8.231-2.254.482,0,.965.013,1.431.046l-3.268,1.476-.079,1.1,5.045-2.319C142.107,600.737,142.843,601.275,142.843,602.351Zm-13.166,9.38,4.037,4.585a.84.84,0,0,0,.984.207l.541-.251a2.52,2.52,0,0,0,1.44-2.577l-.505-4.321a.42.42,0,0,0-.557-.347l-5.765,2.031A.42.42,0,0,0,129.677,611.732Z" transform="translate(-111.43 -599.42)" fill="#bc2e31"/>
</svg>
