<svg xmlns="http://www.w3.org/2000/svg" width="29.102" height="20.968" viewBox="0 0 29.102 20.968">
  <g id="Group_2654" data-name="Group 2654" transform="translate(-1636.564 -959.686)">
    <g id="Group_2653" data-name="Group 2653">
      <path id="Path_1417" data-name="Path 1417" d="M1655.995,963.393c.789-.463,1.508-.911,2.251-1.314a24.21,24.21,0,0,1,5.892-2.34,1.137,1.137,0,0,1,1.526,1.279,3.787,3.787,0,0,1-2.525,3.348,20.134,20.134,0,0,0-6.947,3.548.523.523,0,0,0-.2.481q0,5.465,0,10.929c0,.957-.374,1.33-1.336,1.33h-16.8c-.92,0-1.3-.377-1.3-1.3V962.591c0-.931.366-1.3,1.291-1.3h16.828c.939,0,1.311.376,1.312,1.32Zm-2.1,6.655a2.187,2.187,0,0,0-.18.15,22.637,22.637,0,0,0-3.6,5.181,3.707,3.707,0,0,1-2.058,1.912,1.433,1.433,0,0,1-1.908-.615,16.519,16.519,0,0,0-2.87-3.157c-1.023-.932-2.014-1.9-3.008-2.863a1.647,1.647,0,0,1-.477-1.148,3.7,3.7,0,0,1,2.232-3.295,1.3,1.3,0,0,1,1.538.384q1.38,1.4,2.8,2.772c.623.6,1.272,1.179,1.94,1.795.216-.3.423-.6.634-.885a28.73,28.73,0,0,1,4.767-5.118c.082-.068.191-.168.194-.257.019-.5.009-1.008.009-1.551h-.367q-7.266,0-14.531-.006c-.3,0-.38.089-.379.384q.012,7.234,0,14.468c0,.293.07.386.375.385q7.28-.013,14.561-.007c.108,0,.217-.012.333-.018Z" fill="#bc2e31"/>
    </g>
  </g>
</svg>
