<svg xmlns="http://www.w3.org/2000/svg" width="16.512" height="13.419" viewBox="0 0 16.512 13.419">
  <g id="Group_18" data-name="Group 18" transform="translate(0 0)">
    <path id="Path_10" data-name="Path 10" d="M1235.9,68.7a6.759,6.759,0,0,1-1.946.533,3.4,3.4,0,0,0,1.49-1.874,6.784,6.784,0,0,1-2.151.822,3.39,3.39,0,0,0-5.773,3.09,9.616,9.616,0,0,1-6.982-3.54,3.39,3.39,0,0,0,1.048,4.523,3.373,3.373,0,0,1-1.534-.424c0,.014,0,.029,0,.043a3.389,3.389,0,0,0,2.717,3.321,3.392,3.392,0,0,1-1.53.059,3.391,3.391,0,0,0,3.165,2.352,6.837,6.837,0,0,1-5.015,1.4,9.634,9.634,0,0,0,14.831-8.117q0-.22-.01-.438A6.883,6.883,0,0,0,1235.9,68.7Zm0,0" transform="translate(-1219.393 -67.11)" fill="#bc2e31"/>
  </g>
</svg>
